<svg version="1.1" id="Слой_1" xmlns="http://www.w3.org/2000/svg" x="0" y="0" viewBox="0 0 30 30" xml:space="preserve"><style>.st2{fill:#fff}</style><path class="st2" d="M27.5 8c-.6-2.6-3.5-5.3-6.1-5.9-4.2-.8-8.5-.8-12.7 0C6 2.7 3.2 5.4 2.5 8c-.8 3.6-.8 7.2 0 10.7.6 2.4 3.2 5 5.7 5.8v2.8c0 1 1.3 1.5 2 .8l2.9-3c.6 0 1.3.1 1.9.1 2.1 0 4.2-.2 6.4-.6 2.6-.6 5.5-3.3 6.1-5.9.8-3.5.8-7.2 0-10.7zm-2.3 10.2c-.4 1.7-2.6 3.7-4.3 4.1-2.2.4-4.5.6-6.8.5H14c-.3.3-2.1 2.2-2.1 2.2l-2.2 2.3c-.2.2-.5.1-.5-.2v-4.7c0-.1-.1-.1-.1-.2-1.7-.4-3.9-2.4-4.3-4.1-.7-3.2-.7-6.5 0-9.7.4-1.7 2.6-3.7 4.3-4.1 3.9-.7 7.9-.7 11.8 0 1.7.4 3.9 2.4 4.3 4.1.7 3.3.7 6.6 0 9.8zm0 0"/><path class="st2" d="M18.7 20.4c-.3-.1-.5-.1-.7-.2-2.4-1-4.6-2.3-6.4-4.3-1-1.1-1.8-2.4-2.4-3.7-.3-.6-.6-1.3-.8-2-.4-.6 0-1.3.4-1.7.4-.4.8-.8 1.3-1 .4-.2.8-.1 1.1.3.6.7 1.2 1.5 1.6 2.3.3.5.2 1.1-.3 1.5-.1.1-.2.2-.4.3l-.3.3c-.1.2-.1.5-.1.7.6 1.7 1.7 3.1 3.4 3.8.3.1.6.3.9.2.5-.1.7-.7 1.1-1 .4-.3.8-.3 1.2-.1.4.3.8.5 1.2.8.4.3.7.5 1.1.8.3.3.4.7.3 1.1-.3.7-.8 1.3-1.6 1.7-.1.1-.3.1-.6.2-.2-.1.3-.1 0 0zM15 6.7c3.2.1 5.8 2.2 6.3 5.3.1.5.1 1.1.2 1.6 0 .2-.1.4-.4.4-.3 0-.4-.2-.4-.4 0-.4-.1-.9-.1-1.3-.3-2.4-2.2-4.3-4.5-4.7-.4-.1-.7-.1-1.1-.1-.2 0-.5 0-.6-.3 0-.2.2-.4.4-.4.1-.1.1-.1.2-.1 3.2 0-.1 0 0 0zm0 0"/><path class="st2" d="M19.8 12.9v.2c-.1.3-.6.4-.7 0v-.3c0-.7-.1-1.3-.5-1.9-.3-.6-.9-1.1-1.5-1.4-.4-.2-.8-.3-1.2-.4-.2 0-.4 0-.5-.1-.3 0-.4-.1-.4-.3 0-.2.2-.3.4-.3.7 0 1.4.2 2.1.5 1.3.7 2.1 1.8 2.3 3.3v.7s0-.2 0 0zm0 0"/><path class="st2" d="M17.8 12.8c-.3 0-.4-.1-.4-.4 0-.2 0-.3-.1-.5-.1-.3-.3-.6-.5-.8-.1-.1-.3-.2-.4-.2-.2-.1-.4 0-.6-.1-.2-.1-.3-.2-.3-.4s.2-.3.4-.3c1.2.1 2.1.7 2.2 2.2v.3c0 .1-.1.2-.3.2-.2 0 .2 0 0 0zm0 0"/><path class="st2" d="M27.5 8c-.4-1.5-1.4-2.9-2.7-4.1L23 5.5c1.1.8 2 2 2.2 3 .7 3.2.7 6.5 0 9.7-.4 1.7-2.6 3.7-4.3 4.1-2.2.4-4.5.6-6.8.5H14c-.3.3-2.1 2.2-2.1 2.2l-2.2 2.3c-.2.2-.5.1-.5-.2v-4.7c0-.1-.1-.1-.1-.2-1-.2-2.1-1-3-1.9L4.4 22c1.1 1.2 2.5 2.2 3.9 2.5v2.8c0 1 1.3 1.5 2 .8l2.9-3c.6 0 1.3.1 1.9.1 2.1 0 4.2-.2 6.4-.6 2.6-.6 5.5-3.3 6.1-5.8.7-3.6.7-7.3-.1-10.8zm0 0"/><path class="st2" d="M18.7 20.4c.3-.1-.2-.1 0 0zm0 0"/><path class="st2" d="M20.7 17.4c-.3-.3-.7-.6-1.1-.8-.4-.3-.8-.5-1.2-.8-.4-.3-.9-.2-1.2.1-.4.3-.6.9-1.1 1-.3 0-.6-.1-.9-.2-1.1-.4-1.9-1.1-2.5-2l-1.3 1.2c0 .1.1.1.1.2 1.8 2 4 3.3 6.4 4.3.2.1.5.2.7.2-.3-.1.2-.1 0 0 .2-.1.5-.1.7-.2.7-.4 1.2-1 1.6-1.7.3-.7.1-1-.2-1.3zM15 6.7c.2 0 3 0 0 0zm4.5 1.8L19 9c.9.9 1.5 2 1.6 3.2.1.4.1.9.1 1.3 0 .2.1.4.4.4.2 0 .4-.2.4-.4 0-.5-.1-1.1-.2-1.6-.2-1.3-.9-2.5-1.8-3.4zm.2 3.6c-.2-1.1-.6-1.9-1.3-2.6l-.5.5c.3.3.5.6.7.9.3.6.5 1.3.5 1.9v.3c.1.3.6.3.7 0v-.2s0-.2 0 0v-.5c0-.1 0-.2-.1-.3zm.1.8c0-.2 0 0 0 0zm-2-.1s.1 0 0 0zm0 0s-.1 0 0 0zm.1 0s-.1 0 0 0zm-.6-2.3l-.6.5s.1 0 .1.1c.3.2.4.5.5.8 0 .2.1.3.1.5s.2.4.4.4c.1 0 .2-.1.3-.3v-.3c0-.8-.3-1.3-.8-1.7zm0 0"/></svg>