<svg xmlns="http://www.w3.org/2000/svg" viewBox="200 200 200 200"><path fill="#654493" d="M393.4 300c0 51.4-42 93.4-93.4 93.4s-93.4-42-93.4-93.4 42-93.4 93.4-93.4 93.4 42 93.4 93.4z"/><path fill="#512D83" d="M340.3 258c-22.3-5.1-45.4-12-68.6-3.4-14.6 5.1-14.6 21.4-14.6 35.1 0 3.4-4.3 8.6-2.6 12.9 3.4 12.9 6.9 24.9 19.7 31.7 1.7.9 0 3.4.9 6-.9 0-1.7.9-1.7.9 0 3.4 1.7 7.7.9 10.3l40.3 40.3c41.1-6.9 72.9-40.3 78-81.4L340.3 258z"/><path fill="#FFF" d="M348.9 272.6c-2.6-10.3-13.7-20.6-24-23.1-16.3-3.4-33.4-3.4-50.6 0-10.3 2.6-21.4 12.9-24 23.1-3.4 13.7-3.4 28.3 0 42 2.6 9.4 12.9 19.7 22.3 23.1v11.1c0 4.3 5.1 6 7.7 3.4l11.1-12h7.7c8.6 0 17.1-.9 24.9-2.6 10.3-2.6 21.4-12.9 24-23.1 4.3-13.6 4.3-28.2.9-41.9zm-8.6 40.3c-1.7 6.9-10.3 14.6-17.1 16.3-8.6 1.7-18 2.6-26.6 2.6h-.9c-.9 1.7-8.6 8.6-8.6 8.6l-8.6 9.4c-.9.9-1.7 0-1.7-.9V330s0-.9-.9-.9c-6.9-1.7-15.4-9.4-17.1-16.3-2.6-12.9-2.6-25.7 0-38.6 1.7-6.9 10.3-14.6 17.1-16.3 15.4-2.6 30.9-2.6 46.3 0 6.9 1.7 15.4 9.4 17.1 16.3 3.6 12.9 3.6 25.8 1 38.7z"/><path fill="#FFF" d="M314.6 321.4c-.9 0-1.7-.9-2.6-.9-9.4-4.3-18-9.4-24.9-17.1-4.3-4.3-6.9-9.4-9.4-14.6-.9-2.6-2.6-5.1-3.4-7.7-.9-2.6.9-5.1 1.7-6.9 1.7-1.7 3.4-2.6 5.1-4.3 1.7-.9 3.4 0 4.3.9 2.6 2.6 4.3 6 6.9 9.4.9 1.7.9 4.3-.9 6-.9 0-.9.9-1.7.9l-.9.9c-.9.9-.9 1.7 0 2.6 2.6 6.9 6.9 12 13.7 14.6.9.9 2.6.9 3.4.9 1.7 0 2.6-2.6 4.3-3.4 1.7-.9 3.4-.9 5.1 0 1.7.9 3.4 1.7 4.3 3.4 1.7.9 2.6 1.7 4.3 3.4 1.7.9 1.7 2.6.9 4.3-1.7 2.6-3.4 5.1-6 6.9-2.5-.1-3.4-.1-4.2.7-.9-.8.8-.8 0 0zm-14.6-54c12.9 0 23.1 8.6 24.9 20.6 0 1.7.9 4.3.9 6 0 .9-.9 1.7-1.7 1.7-.9 0-1.7-.9-1.7-1.7 0-1.7 0-3.4-.9-5.1-1.7-9.4-8.6-17.1-18-18.9-1.7 0-2.6 0-4.3-.9-.9 0-1.7 0-2.6-.9.8-.8 1.7-.8 3.4-.8-.9 0 0 0 0 0 12.9 0 0 0 0 0z"/><path fill="#FFF" d="M318.9 291.4v.9c0 .9-2.6 1.7-2.6 0v-.9c0-2.6-.9-5.1-1.7-7.7-1.7-2.6-3.4-4.3-6-5.1-1.7-.9-3.4-.9-5.1-1.7h-2.6c-.9 0-1.7-.9-1.7-1.7 0-.9.9-1.7 1.7-1.7 2.6 0 6 .9 8.6 1.7 5.1 2.6 7.7 6.9 8.6 12.9v.9c.8.7.8 1.6.8 2.4 0 0 0-.8 0 0z"/><path fill="#FFF" d="M311.1 291.4c-.9 0-1.7-.9-1.7-1.7V288c0-.9-.9-2.6-1.7-3.4-.9 0-.9-.9-1.7-.9h-2.6c-.9 0-1.7-.9-.9-1.7 0-.9.9-.9 1.7-.9 5.1 0 8.6 2.6 8.6 8.6v.9c-.8 0-.8.8-1.7.8s.9 0 0 0z"/><path fill="#D1D1D1" d="M348.9 272.6c-1.7-6-5.1-12-11.1-16.3l-6.9 6c4.3 3.4 7.7 7.7 8.6 12 2.6 12.9 2.6 25.7 0 38.6-1.7 6.9-10.3 14.6-17.1 16.3-8.6 1.7-18 2.6-26.6 2.6h-.9c-.9 1.7-8.6 8.6-8.6 8.6l-8.6 9.4c-.9.9-1.7 0-1.7-.9V330s0-.9-.9-.9c-3.4-.9-8.6-4.3-12-7.7l-6.9 6c4.3 4.3 10.3 8.6 15.4 10.3v11.1c0 4.3 5.1 6 7.7 3.4l11.1-12h7.7c8.6 0 17.1-.9 24.9-2.6 10.3-2.6 21.4-12.9 24-23.1 5.3-13.6 5.3-28.2 1.9-41.9z"/><path fill="#FFF" d="M314.6 321.4c.8-.8-.9-.8 0 0z"/><path fill="#D1D1D1" d="M322.3 309.4c-1.7-.9-2.6-2.6-4.3-3.4s-3.4-1.7-4.3-3.4c-1.7-.9-3.4-.9-5.1 0-1.7.9-2.6 3.4-4.3 3.4-.9 0-2.6 0-3.4-.9-4.3-1.7-7.7-4.3-9.4-7.7l-5.1 4.3.9.9c6.9 7.7 15.4 12.9 24.9 17.1.9 0 1.7.9 2.6.9-.9 0 .9 0 0 0 .9 0 1.7 0 2.6-.9 2.6-1.7 5.1-4.3 6-6.9.6-.8.6-2.5-1.1-3.4z"/><path fill="#FFF" d="M300 267.4c.9 0 12 0 0 0z"/><path fill="#D1D1D1" d="M318 274.3l-2.6 1.7c3.4 3.4 6 7.7 6.9 12.9 0 1.7 0 3.4.9 5.1 0 .9.9 1.7 1.7 1.7.9 0 1.7-.9 1.7-1.7 0-1.7 0-4.3-.9-6-1.7-5.1-4.3-10.3-7.7-13.7zm.9 14.6c-.9-4.3-2.6-7.7-5.1-10.3l-2.6 1.7c.9.9 1.7 2.6 2.6 3.4 1.7 2.6 1.7 5.1 1.7 7.7v.9c.9.9 2.6.9 2.6 0v-.9s0-.9 0 0c.8-.8.8-1.7.8-2.5z"/><path fill="#FFF" d="M318.9 291.4c0-.8 0 0 0 0zm-7.8 0zm0 0s-.8 0 0 0zm0 0z"/><path fill="#D1D1D1" d="M309.4 282l-2.6 1.7c.9.9 1.7 1.7 1.7 3.4v1.7c0 .9.9 1.7 1.7 1.7.9 0 .9 0 .9-.9v-.9c.9-2.4 0-5-1.7-6.7z"/></svg>