<svg xmlns="http://www.w3.org/2000/svg" viewBox="0 0 245 55"><path d="M22.1 19.2h-8.4v-4h21.5v4h-8.4v21.7h-4.6V19.2zm16.7-4h8.5c1.3 0 2.3.1 3 .2.7.1 1.3.3 1.9.5 1.3.6 2.4 1.4 3.2 2.6.8 1.2 1.2 2.7 1.2 4.4 0 .8-.1 1.5-.3 2.2s-.5 1.4-.8 2c-.4.6-.8 1.2-1.4 1.6-.5.5-1.1.9-1.8 1.1v.2l.2.3c.1.1.2.3.3.4l.3.6 5.3 9.5H53l-5.1-9.6h-4.5v9.6h-4.7V15.2zm8.8 12c1.3 0 2.2-.4 3-1.1.7-.7 1.1-1.7 1.1-3 0-.8-.2-1.5-.5-2.2-.3-.6-.8-1.1-1.5-1.4-.3-.1-.7-.3-1.1-.3-.4-.1-1-.1-1.7-.1h-3.4v8h4.1zm12.6.7c0-1.8.3-3.5 1-5.1.7-1.6 1.6-3 2.7-4.2 1.2-1.2 2.6-2.1 4.2-2.8 1.6-.7 3.4-1 5.4-1 2 0 3.7.3 5.4 1 1.6.7 3 1.6 4.2 2.8 1.2 1.2 2.1 2.6 2.7 4.2.7 1.6 1 3.3 1 5.1 0 1.9-.3 3.6-1 5.3-.7 1.6-1.6 3.1-2.7 4.3-1.2 1.2-2.6 2.2-4.2 2.9-1.6.7-3.4 1-5.4 1-2 0-3.7-.3-5.4-1-1.6-.7-3-1.6-4.2-2.9-1.2-1.2-2.1-2.6-2.7-4.3-.7-1.7-1-3.5-1-5.3zm4.8 0c0 1.3.2 2.5.6 3.6.4 1.1 1 2.1 1.8 2.9.7.8 1.6 1.5 2.7 1.9 1 .5 2.2.7 3.4.7s2.4-.2 3.4-.7c1-.5 1.9-1.1 2.7-1.9.7-.8 1.3-1.8 1.8-2.9.4-1.1.6-2.3.6-3.6 0-1.3-.2-2.4-.6-3.5-.4-1.1-1-2-1.8-2.8-.7-.8-1.6-1.4-2.7-1.9-1-.4-2.2-.7-3.4-.7s-2.4.2-3.4.7c-1 .4-1.9 1.1-2.7 1.9-.7.8-1.3 1.7-1.8 2.8-.4 1-.6 2.2-.6 3.5zm30.6 2.2L87 15.2h5.3l4 7.6.6 1.2c.2.4.4.8.5 1.1.2.4.3.8.5 1.1h.1c.1-.4.3-.7.5-1.1.1-.3.3-.7.5-1.1l.6-1.2 4-7.6h5.3l-8.5 14.9v10.7h-4.6V30.1zM112 15.2h4.7v10.5h3.3l6-10.5h5.1l-7.3 12.2v.1l7.7 13.4h-5.3L120 29.7h-3.3v11.2H112V15.2zm29.3 0h4.9l9 25.7h-4.8l-2.2-6.6h-9l-2.2 6.6h-4.8l9.1-25.7zm5.8 15.3l-2.3-6.9c-.1-.4-.2-.8-.4-1.2s-.2-.9-.3-1.3c-.1-.5-.2-.9-.3-1.4h-.1c-.1.5-.3 1-.4 1.4-.1.4-.2.8-.3 1.3-.1.5-.2.9-.3 1.2l-2.3 6.9h6.7zm15.2-11.3h-8.4v-4h21.5v4H167v21.7h-4.6V19.2zm20.8-4h4.9l9 25.7h-4.8l-2.2-6.6h-9l-2.2 6.6H174l9.1-25.7zm5.8 15.3l-2.3-6.9c-.1-.4-.2-.8-.4-1.2s-.2-.9-.3-1.3c-.1-.5-.2-.9-.3-1.4h-.1c-.1.5-.3 1-.4 1.4-.1.4-.2.8-.3 1.3-.1.5-.2.9-.3 1.2l-2.3 6.9h6.7zm16.8-2.6L198 15.2h5.3l3.5 6.3c.2.4.4.8.6 1.1.2.4.4.7.5 1 .2.4.3.7.5 1h.1c.1-.3.3-.7.5-1 .1-.3.3-.6.5-1s.4-.8.6-1.1l3.6-6.3h5.3l-7.7 12.7 8 13h-5.2l-4-6.9c-.2-.4-.4-.7-.6-1.1-.2-.4-.4-.7-.5-1-.2-.3-.3-.7-.5-1h-.1c-.1.3-.3.6-.5 1-.1.3-.3.6-.5 1s-.4.7-.6 1.1l-4 6.9h-5.2l8.1-13zm17.2-12.7h4.7v25.7h-4.7V15.2z" fill="#e4c646"/><path d="M228.6 49.5H16.4c-6.6 0-12-5.4-12-12v-20c0-6.6 5.4-12 12-12h212.3c6.6 0 12 5.4 12 12v20c-.1 6.6-5.5 12-12.1 12z" fill="none" stroke="#e4c646" stroke-width="2" stroke-miterlimit="10"/></svg>