<svg version="1.1" id="Слой_1" xmlns="http://www.w3.org/2000/svg" x="0" y="0" viewBox="0 0 30 30" xml:space="preserve"><style>.st2{fill:#56af40}</style><path class="st2" d="M2.6 27l1.7-6c-1.1-1.9-1.7-4-1.7-6.2 0-6.7 5.5-12.2 12.2-12.2S27 8.1 27 14.8C27 21.5 21.5 27 14.8 27c-2.1 0-4.1-.5-6-1.6L2.6 27zm6.6-3.8l.4.2c1.6 1 3.4 1.5 5.3 1.5 5.6 0 10.1-4.5 10.1-10.1S20.5 4.7 14.9 4.7 4.7 9.2 4.7 14.8c0 1.9.6 3.8 1.6 5.5l.3.4-1 3.5 3.6-1zm0 0"/><path class="st2" d="M11.4 9.1h-.8c-.2 0-.5.1-.7.2-.4.3-1 1-1.2 1.8-.3 1.3.2 2.8 1.3 4.3s3.2 4 6.9 5c1.2.3 2.1.1 2.9-.4.6-.4 1-1 1.1-1.6l.1-.6c0-.2-.1-.4-.2-.5l-2.7-1.2c-.2-.1-.4 0-.5.1l-1 1.4c-.1.1-.2.1-.3.1-.7-.3-3.1-1.3-4.4-3.8-.1-.1 0-.2 0-.3l1-1.2c.1-.1.1-.3.1-.4l-1.2-2.7c-.1-.1-.3-.2-.4-.2zm0 0"/><path class="st2" d="M5.7 19.3c-.7-1.4-1.1-2.9-1.1-4.5 0-5.6 4.5-10.1 10.1-10.1 2.1 0 4 .6 5.6 1.7L22 5c-2-1.5-4.5-2.4-7.2-2.4-6.7 0-12.2 5.5-12.2 12.2 0 2.1.5 4.1 1.5 5.9l1.6-1.4z"/><path class="st2" d="M10 15.5l1.7-1.5c-.1-.1 0-.2 0-.3l1-1.2c.1-.1.1-.3.1-.4l-1.2-2.7c-.1-.1-.2-.2-.4-.2h-.8c-.2 0-.5.1-.7.2-.4.3-1 1-1.2 1.8-.1 1.2.4 2.7 1.5 4.3z"/></svg>