<svg xmlns="http://www.w3.org/2000/svg" viewBox="200 200 200 200"><path fill="#56AF40" d="M393.4 300c0 51.4-42 93.4-93.4 93.4s-93.4-42-93.4-93.4 42-93.4 93.4-93.4 93.4 42 93.4 93.4z"/><path fill="#50983B" d="M340.3 258c-22.3-5.1-31.7-18-54.9-9.4-15.4 6-29.1 28.3-28.3 42 0 3.4-4.3 8.6-2.6 12.9 3.4 12.9 10.3 10.3 8.6 33.4 0 2.6.9.9 0 4.3l51.4 51.4c41.1-6.9 72.9-40.3 78-81.4L340.3 258z"/><g fill="#D1D1D1"><path d="M252 346.3l7.7-25.7c-5.1-7.7-6.9-17.1-6.9-26.6 0-29.1 23.1-52.3 52.3-52.3 29.1 0 52.3 23.1 52.3 52.3s-23.1 52.3-52.3 52.3c-8.6 0-18-2.6-25.7-6.9l-27.4 6.9zm28.3-17.2l1.7.9c6.9 4.3 14.6 6 22.3 6 24 0 43.7-19.7 43.7-43.7 0-24-19.7-43.7-43.7-43.7s-43.7 19.7-43.7 43.7c0 8.6 2.6 16.3 6.9 23.1l.9 1.7-4.3 15.4 16.2-3.4z"/><path d="M289.7 269.1h-3.4c-.9 0-1.7 0-2.6.9-1.7 1.7-4.3 4.3-5.1 7.7-.9 5.1.9 12 5.1 18.9 5.1 6.9 13.7 17.1 30 21.4 5.1 1.7 9.4.9 12-1.7 2.6-1.7 4.3-4.3 5.1-6.9l.9-2.6c0-.9 0-1.7-.9-1.7l-11.1-5.1c-.9 0-1.7 0-1.7.9l-4.3 6c0 .9-.9.9-1.7.9-3.4-.9-13.7-5.1-18.9-16.3v-1.7l4.3-5.1c.9-.9.9-.9 0-1.7l-6-12.9c0-1-.8-1-1.7-1z"/></g><g fill="#FFF"><path d="M265.7 312.9c-2.6-6-4.3-12.9-4.3-19.7 0-24 19.7-43.7 43.7-43.7 8.6 0 17.1 2.6 24 7.7l6.9-6c-8.6-6.9-19.7-10.3-30.9-10.3-29.1 0-52.3 23.1-52.3 52.3 0 8.6 2.6 18 6.9 25.7l6-6z"/><path d="M284.6 296.6l7.7-6.9V288l4.3-5.1c.9-.9.9-.9 0-1.7l-5.1-11.1c0-.9-.9-.9-1.7-.9h-3.4c-.9 0-1.7 0-2.6.9-1.7 1.7-4.3 4.3-5.1 7.7-1 5.1.7 11.9 5.9 18.8-.9 0 0 0 0 0z"/></g></svg>