<?xml version="1.0" encoding="utf-8"?>
<!-- Generator: Adobe Illustrator 19.0.1, SVG Export Plug-In . SVG Version: 6.00 Build 0)  -->
<svg version="1.1" id="Слой_1" xmlns="http://www.w3.org/2000/svg" xmlns:xlink="http://www.w3.org/1999/xlink" x="0px" y="0px"
	 viewBox="0 0 245 55" style="enable-background:new 0 0 245 55;" xml:space="preserve">
<style type="text/css">
	.st0{fill:#E4C646;}
	.st1{fill:none;stroke:#E4C646;stroke-width:2;stroke-miterlimit:10;}
	.st2{fill:#FFFFFF;}
</style>
<g>
	<path class="st0" d="M22.1,19.2h-8.4v-4h21.5v4h-8.4v21.7h-4.6V19.2z"/>
	<path class="st0" d="M38.8,15.2h8.5c1.3,0,2.3,0.1,3,0.2c0.7,0.1,1.3,0.3,1.9,0.5c1.3,0.6,2.4,1.4,3.2,2.6c0.8,1.2,1.2,2.7,1.2,4.4
		c0,0.8-0.1,1.5-0.3,2.2s-0.5,1.4-0.8,2c-0.4,0.6-0.8,1.2-1.4,1.6c-0.5,0.5-1.1,0.9-1.8,1.1V30l0.2,0.3c0.1,0.1,0.2,0.3,0.3,0.4
		c0.1,0.2,0.2,0.4,0.3,0.6l5.3,9.5H53l-5.1-9.6h-4.5v9.6h-4.7V15.2z M47.6,27.2c1.3,0,2.2-0.4,3-1.1c0.7-0.7,1.1-1.7,1.1-3
		c0-0.8-0.2-1.5-0.5-2.2c-0.3-0.6-0.8-1.1-1.5-1.4c-0.3-0.1-0.7-0.3-1.1-0.3c-0.4-0.1-1-0.1-1.7-0.1h-3.4v8H47.6z"/>
	<path class="st0" d="M60.2,27.9c0-1.8,0.3-3.5,1-5.1c0.7-1.6,1.6-3,2.7-4.2c1.2-1.2,2.6-2.1,4.2-2.8c1.6-0.7,3.4-1,5.4-1
		c2,0,3.7,0.3,5.4,1c1.6,0.7,3,1.6,4.2,2.8c1.2,1.2,2.1,2.6,2.7,4.2c0.7,1.6,1,3.3,1,5.1c0,1.9-0.3,3.6-1,5.3
		c-0.7,1.6-1.6,3.1-2.7,4.3c-1.2,1.2-2.6,2.2-4.2,2.9c-1.6,0.7-3.4,1-5.4,1c-2,0-3.7-0.3-5.4-1c-1.6-0.7-3-1.6-4.2-2.9
		c-1.2-1.2-2.1-2.6-2.7-4.3C60.5,31.5,60.2,29.7,60.2,27.9z M65,27.9c0,1.3,0.2,2.5,0.6,3.6c0.4,1.1,1,2.1,1.8,2.9
		c0.7,0.8,1.6,1.5,2.7,1.9c1,0.5,2.2,0.7,3.4,0.7s2.4-0.2,3.4-0.7c1-0.5,1.9-1.1,2.7-1.9c0.7-0.8,1.3-1.8,1.8-2.9
		c0.4-1.1,0.6-2.3,0.6-3.6c0-1.3-0.2-2.4-0.6-3.5c-0.4-1.1-1-2-1.8-2.8c-0.7-0.8-1.6-1.4-2.7-1.9c-1-0.4-2.2-0.7-3.4-0.7
		s-2.4,0.2-3.4,0.7c-1,0.4-1.9,1.1-2.7,1.9c-0.7,0.8-1.3,1.7-1.8,2.8C65.2,25.4,65,26.6,65,27.9z"/>
	<path class="st0" d="M95.6,30.1l-8.6-14.9h5.3l4,7.6c0.2,0.4,0.4,0.8,0.6,1.2c0.2,0.4,0.4,0.8,0.5,1.1c0.2,0.4,0.3,0.8,0.5,1.1H98
		c0.1-0.4,0.3-0.7,0.5-1.1c0.1-0.3,0.3-0.7,0.5-1.1c0.2-0.4,0.4-0.8,0.6-1.2l4-7.6h5.3l-8.5,14.9v10.7h-4.6V30.1z"/>
	<path class="st0" d="M112,15.2h4.7v10.5h3.3l6-10.5h5.1l-7.3,12.2v0.1l7.7,13.4h-5.3L120,29.7h-3.3v11.2H112V15.2z"/>
	<path class="st0" d="M141.3,15.2h4.9l9,25.7h-4.8l-2.2-6.6h-9l-2.2,6.6h-4.8L141.3,15.2z M147.1,30.5l-2.3-6.9
		c-0.1-0.4-0.2-0.8-0.4-1.2s-0.2-0.9-0.3-1.3c-0.1-0.5-0.2-0.9-0.3-1.4h-0.1c-0.1,0.5-0.3,1-0.4,1.4c-0.1,0.4-0.2,0.8-0.3,1.3
		c-0.1,0.5-0.2,0.9-0.3,1.2l-2.3,6.9H147.1z"/>
	<path class="st0" d="M162.3,19.2h-8.4v-4h21.5v4h-8.4v21.7h-4.6V19.2z"/>
	<path class="st0" d="M183.1,15.2h4.9l9,25.7h-4.8l-2.2-6.6h-9l-2.2,6.6h-4.8L183.1,15.2z M188.9,30.5l-2.3-6.9
		c-0.1-0.4-0.2-0.8-0.4-1.2s-0.2-0.9-0.3-1.3c-0.1-0.5-0.2-0.9-0.3-1.4h-0.1c-0.1,0.5-0.3,1-0.4,1.4c-0.1,0.4-0.2,0.8-0.3,1.3
		c-0.1,0.5-0.2,0.9-0.3,1.2l-2.3,6.9H188.9z"/>
	<path class="st0" d="M205.7,27.9L198,15.2h5.3l3.5,6.3c0.2,0.4,0.4,0.8,0.6,1.1c0.2,0.4,0.4,0.7,0.5,1c0.2,0.4,0.3,0.7,0.5,1h0.1
		c0.1-0.3,0.3-0.7,0.5-1c0.1-0.3,0.3-0.6,0.5-1c0.2-0.4,0.4-0.8,0.6-1.1l3.6-6.3h5.3l-7.7,12.7l8,13h-5.2l-4-6.9
		c-0.2-0.4-0.4-0.7-0.6-1.1c-0.2-0.4-0.4-0.7-0.5-1c-0.2-0.3-0.3-0.7-0.5-1h-0.1c-0.1,0.3-0.3,0.6-0.5,1c-0.1,0.3-0.3,0.6-0.5,1
		c-0.2,0.4-0.4,0.7-0.6,1.1l-4,6.9h-5.2L205.7,27.9z"/>
	<path class="st0" d="M222.9,15.2h4.7v25.7h-4.7V15.2z"/>
</g>
<path class="st1" d="M228.6,49.5H16.4c-6.6,0-12-5.4-12-12v-20c0-6.6,5.4-12,12-12h212.3c6.6,0,12,5.4,12,12v20
	C240.6,44.1,235.2,49.5,228.6,49.5z"/>
</svg>
