<?xml version="1.0" encoding="utf-8"?>
<!-- Generator: Adobe Illustrator 19.0.1, SVG Export Plug-In . SVG Version: 6.00 Build 0)  -->
<svg version="1.1" id="Слой_1" xmlns="http://www.w3.org/2000/svg" xmlns:xlink="http://www.w3.org/1999/xlink" x="0px" y="0px"
	 viewBox="0 0 30 30" style="enable-background:new 0 0 30 30;" xml:space="preserve">
<style type="text/css">
	.st0{fill:#E4C646;}
	.st1{fill:none;stroke:#E4C646;stroke-width:2;stroke-miterlimit:10;}
	.st2{fill:#FFFFFF;}
</style>
<g>
	<path class="st2" d="M25.3,6c-0.1,0-0.2,0-0.2,0L4.4,13.9c-0.6,0.2-0.6,1.1,0,1.3l4.8,1.6l2.9,5.8c0,0,0,0,0,0l0,0l0,0
		c0.1,0.1,0.2,0.2,0.3,0.2c0.1,0,0.1,0,0.2-0.1l2.7-2.3l-3-2.3l0.2,3l-2.2-4.5l11.5-6.9l-9.6,8.4l7.5,5.7c0.3,0.2,0.5,0.3,0.8,0.3
		c0.6,0,1.2-0.4,1.3-1l4-16.2C26.1,6.4,25.7,6,25.3,6z"/>
</g>
</svg>
