<?xml version="1.0" encoding="utf-8"?>
<!-- Generator: Adobe Illustrator 17.1.0, SVG Export Plug-In . SVG Version: 6.00 Build 0)  -->
<!DOCTYPE svg PUBLIC "-//W3C//DTD SVG 1.1//EN" "http://www.w3.org/Graphics/SVG/1.1/DTD/svg11.dtd">
<svg version="1.1" id="Layer_1" xmlns="http://www.w3.org/2000/svg" xmlns:xlink="http://www.w3.org/1999/xlink" x="0px" y="0px"
	 viewBox="200 200 200 200" enable-background="new 200 200 200 200" xml:space="preserve">
<g id="Слой_1" display="none">
</g>
<g id="Слой_2">
	<g>
		<circle fill="#40B3E5" cx="300" cy="300" r="93.4"/>
		<path fill="#0090C8" d="M393.4,300c0-2.6,0-4.3,0-6.9l-38.6-38.6L246,297.4l41.1,41.1l0.9,1.7l0.9-0.9l0,0l-0.9,0.9l46.3,46.3
			C368.6,373.7,393.4,339.4,393.4,300z"/>
		<polygon fill="#FFFFFF" points="290.6,313.7 333.4,345.4 354,254.6 246,297.4 278.6,308.6 339.4,268.3 		"/>
		<polygon fill="#D1D0D6" points="278.6,308.6 288,341.1 290.6,313.7 339.4,268.3 		"/>
		<polygon fill="#B8B8BD" points="304.3,324 288,341.1 290.6,313.7 		"/>
	</g>
</g>
</svg>
