<?xml version="1.0" encoding="utf-8"?>
<!-- Generator: Adobe Illustrator 19.0.1, SVG Export Plug-In . SVG Version: 6.00 Build 0)  -->
<svg version="1.1" id="Слой_1" xmlns="http://www.w3.org/2000/svg" xmlns:xlink="http://www.w3.org/1999/xlink" x="0px" y="0px"
	 viewBox="0 0 30 30" style="enable-background:new 0 0 30 30;" xml:space="preserve">
<style type="text/css">
	.st0{fill:#E4C646;}
	.st1{fill:none;stroke:#E4C646;stroke-width:2;stroke-miterlimit:10;}
	.st2{fill:#FFFFFF;}
</style>
<g>
	<path class="st2" d="M27.5,8L27.5,8c-0.6-2.6-3.5-5.3-6.1-5.9l0,0c-4.2-0.8-8.5-0.8-12.7,0l0,0C6,2.7,3.2,5.4,2.5,8l0,0
		c-0.8,3.6-0.8,7.2,0,10.7l0,0c0.6,2.4,3.2,5,5.7,5.8v2.8c0,1,1.3,1.5,2,0.8l2.9-3c0.6,0,1.3,0.1,1.9,0.1c2.1,0,4.2-0.2,6.4-0.6l0,0
		c2.6-0.6,5.5-3.3,6.1-5.9l0,0C28.3,15.2,28.3,11.5,27.5,8L27.5,8z M25.2,18.2c-0.4,1.7-2.6,3.7-4.3,4.1c-2.2,0.4-4.5,0.6-6.8,0.5
		c0,0-0.1,0-0.1,0c-0.3,0.3-2.1,2.2-2.1,2.2l-2.2,2.3c-0.2,0.2-0.5,0.1-0.5-0.2v-4.7c0-0.1-0.1-0.1-0.1-0.2h0
		c-1.7-0.4-3.9-2.4-4.3-4.1c-0.7-3.2-0.7-6.5,0-9.7c0.4-1.7,2.6-3.7,4.3-4.1c3.9-0.7,7.9-0.7,11.8,0c1.7,0.4,3.9,2.4,4.3,4.1
		C25.9,11.7,25.9,15,25.2,18.2L25.2,18.2z M25.2,18.2"/>
	<path class="st2" d="M18.7,20.4c-0.3-0.1-0.5-0.1-0.7-0.2c-2.4-1-4.6-2.3-6.4-4.3c-1-1.1-1.8-2.4-2.4-3.7c-0.3-0.6-0.6-1.3-0.8-2
		C8,9.6,8.4,8.9,8.8,8.5c0.4-0.4,0.8-0.8,1.3-1c0.4-0.2,0.8-0.1,1.1,0.3c0.6,0.7,1.2,1.5,1.6,2.3c0.3,0.5,0.2,1.1-0.3,1.5
		c-0.1,0.1-0.2,0.2-0.4,0.3c-0.1,0.1-0.2,0.2-0.3,0.3c-0.1,0.2-0.1,0.5-0.1,0.7c0.6,1.7,1.7,3.1,3.4,3.8c0.3,0.1,0.6,0.3,0.9,0.2
		c0.5-0.1,0.7-0.7,1.1-1c0.4-0.3,0.8-0.3,1.2-0.1c0.4,0.3,0.8,0.5,1.2,0.8c0.4,0.3,0.7,0.5,1.1,0.8c0.3,0.3,0.4,0.7,0.3,1.1
		c-0.3,0.7-0.8,1.3-1.6,1.7C19.2,20.3,19,20.3,18.7,20.4C18.5,20.3,19,20.3,18.7,20.4L18.7,20.4z M18.7,20.4"/>
	<path class="st2" d="M15,6.7c3.2,0.1,5.8,2.2,6.3,5.3c0.1,0.5,0.1,1.1,0.2,1.6c0,0.2-0.1,0.4-0.4,0.4c-0.3,0-0.4-0.2-0.4-0.4
		c0-0.4-0.1-0.9-0.1-1.3c-0.3-2.4-2.2-4.3-4.5-4.7c-0.4-0.1-0.7-0.1-1.1-0.1c-0.2,0-0.5,0-0.6-0.3c0-0.2,0.2-0.4,0.4-0.4
		C14.9,6.7,14.9,6.7,15,6.7C18.2,6.7,14.9,6.7,15,6.7L15,6.7z M15,6.7"/>
	<path class="st2" d="M19.8,12.9c0,0,0,0.1,0,0.2c-0.1,0.3-0.6,0.4-0.7,0c0-0.1,0-0.2,0-0.3c0-0.7-0.1-1.3-0.5-1.9
		c-0.3-0.6-0.9-1.1-1.5-1.4c-0.4-0.2-0.8-0.3-1.2-0.4c-0.2,0-0.4,0-0.5-0.1C15.1,9,15,8.9,15,8.7c0-0.2,0.2-0.3,0.4-0.3
		c0.7,0,1.4,0.2,2.1,0.5c1.3,0.7,2.1,1.8,2.3,3.3c0,0.1,0,0.1,0,0.2C19.8,12.5,19.8,12.7,19.8,12.9C19.8,12.9,19.8,12.7,19.8,12.9
		L19.8,12.9z M19.8,12.9"/>
	<path class="st2" d="M17.8,12.8c-0.3,0-0.4-0.1-0.4-0.4c0-0.2,0-0.3-0.1-0.5c-0.1-0.3-0.3-0.6-0.5-0.8c-0.1-0.1-0.3-0.2-0.4-0.2
		c-0.2-0.1-0.4,0-0.6-0.1c-0.2-0.1-0.3-0.2-0.3-0.4c0-0.2,0.2-0.3,0.4-0.3c1.2,0.1,2.1,0.7,2.2,2.2c0,0.1,0,0.2,0,0.3
		C18.1,12.7,18,12.8,17.8,12.8C17.6,12.8,18,12.8,17.8,12.8L17.8,12.8z M17.8,12.8"/>
	<path class="st2" d="M27.5,8L27.5,8c-0.4-1.5-1.4-2.9-2.7-4.1L23,5.5c1.1,0.8,2,2,2.2,3c0.7,3.2,0.7,6.5,0,9.7
		c-0.4,1.7-2.6,3.7-4.3,4.1c-2.2,0.4-4.5,0.6-6.8,0.5c0,0-0.1,0-0.1,0c-0.3,0.3-2.1,2.2-2.1,2.2l-2.2,2.3c-0.2,0.2-0.5,0.1-0.5-0.2
		v-4.7c0-0.1-0.1-0.1-0.1-0.2h0c-1-0.2-2.1-1-3-1.9L4.4,22c1.1,1.2,2.5,2.2,3.9,2.5v2.8c0,1,1.3,1.5,2,0.8l2.9-3
		c0.6,0,1.3,0.1,1.9,0.1c2.1,0,4.2-0.2,6.4-0.6l0,0c2.6-0.6,5.5-3.3,6.1-5.8l0,0C28.3,15.2,28.3,11.5,27.5,8L27.5,8z M27.5,8"/>
	<path class="st2" d="M18.7,20.4C19,20.3,18.5,20.3,18.7,20.4L18.7,20.4z M18.7,20.4"/>
	<path class="st2" d="M20.7,17.4c-0.3-0.3-0.7-0.6-1.1-0.8c-0.4-0.3-0.8-0.5-1.2-0.8c-0.4-0.3-0.9-0.2-1.2,0.1
		c-0.4,0.3-0.6,0.9-1.1,1c-0.3,0-0.6-0.1-0.9-0.2c-1.1-0.4-1.9-1.1-2.5-2l-1.3,1.2c0,0.1,0.1,0.1,0.1,0.2c1.8,2,4,3.3,6.4,4.3
		c0.2,0.1,0.5,0.2,0.7,0.2c-0.3-0.1,0.2-0.1,0,0c0.2-0.1,0.5-0.1,0.7-0.2c0.7-0.4,1.2-1,1.6-1.7C21.2,18,21,17.7,20.7,17.4
		L20.7,17.4z M20.7,17.4"/>
	<path class="st2" d="M15,6.7C15,6.7,15,6.7,15,6.7C15.2,6.7,18,6.7,15,6.7L15,6.7z M15,6.7"/>
	<path class="st2" d="M19.5,8.5L19,9c0.9,0.9,1.5,2,1.6,3.2c0.1,0.4,0.1,0.9,0.1,1.3c0,0.2,0.1,0.4,0.4,0.4c0.2,0,0.4-0.2,0.4-0.4
		c0-0.5-0.1-1.1-0.2-1.6C21.1,10.6,20.4,9.4,19.5,8.5L19.5,8.5z M19.5,8.5"/>
	<path class="st2" d="M19.7,12.1c-0.2-1.1-0.6-1.9-1.3-2.6L17.9,10c0.3,0.3,0.5,0.6,0.7,0.9c0.3,0.6,0.5,1.3,0.5,1.9
		c0,0.1,0,0.2,0,0.3c0.1,0.3,0.6,0.3,0.7,0c0-0.1,0-0.2,0-0.2c0,0,0-0.2,0,0c0-0.2,0-0.4,0-0.5C19.8,12.3,19.8,12.2,19.7,12.1
		L19.7,12.1z M19.7,12.1"/>
	<path class="st2" d="M19.8,12.9C19.8,12.7,19.8,12.9,19.8,12.9L19.8,12.9z M19.8,12.9"/>
	<path class="st2" d="M17.8,12.8C17.8,12.8,17.9,12.8,17.8,12.8C17.8,12.8,17.8,12.8,17.8,12.8C17.8,12.8,17.8,12.8,17.8,12.8
		L17.8,12.8z M17.8,12.8"/>
	<path class="st2" d="M17.8,12.8C17.8,12.8,17.8,12.8,17.8,12.8C17.8,12.8,17.7,12.8,17.8,12.8L17.8,12.8z M17.8,12.8"/>
	<path class="st2" d="M17.9,12.8C17.9,12.8,17.8,12.8,17.9,12.8C17.9,12.8,17.9,12.8,17.9,12.8L17.9,12.8z M17.9,12.8"/>
	<path class="st2" d="M17.3,10.5L16.7,11c0,0,0.1,0,0.1,0.1c0.3,0.2,0.4,0.5,0.5,0.8c0,0.2,0.1,0.3,0.1,0.5c0,0.2,0.2,0.4,0.4,0.4
		c0,0,0,0,0,0c0.1,0,0.2-0.1,0.3-0.3c0-0.1,0-0.2,0-0.3C18.1,11.4,17.8,10.9,17.3,10.5L17.3,10.5z M17.3,10.5"/>
</g>
</svg>
