<?xml version="1.0" encoding="utf-8"?>
<!-- Generator: Adobe Illustrator 17.1.0, SVG Export Plug-In . SVG Version: 6.00 Build 0)  -->
<!DOCTYPE svg PUBLIC "-//W3C//DTD SVG 1.1//EN" "http://www.w3.org/Graphics/SVG/1.1/DTD/svg11.dtd">
<svg version="1.1" id="Layer_1" xmlns="http://www.w3.org/2000/svg" xmlns:xlink="http://www.w3.org/1999/xlink" x="0px" y="0px"
	 viewBox="200 200 200 200" enable-background="new 200 200 200 200" xml:space="preserve">
<g id="Слой_1" display="none">
</g>
<g id="Слой_2">
	<g>
		<path fill="#654493" d="M393.4,300c0,51.4-42,93.4-93.4,93.4s-93.4-42-93.4-93.4s42-93.4,93.4-93.4S393.4,248.6,393.4,300
			L393.4,300z"/>
		<path fill="#512D83" d="M340.3,258c-22.3-5.1-45.4-12-68.6-3.4c-14.6,5.1-14.6,21.4-14.6,35.1c0,3.4-4.3,8.6-2.6,12.9
			c3.4,12.9,6.9,24.9,19.7,31.7c1.7,0.9,0,3.4,0.9,6c-0.9,0-1.7,0.9-1.7,0.9c0,3.4,1.7,7.7,0.9,10.3l40.3,40.3
			c41.1-6.9,72.9-40.3,78-81.4L340.3,258z"/>
		<path fill="#FFFFFF" d="M348.9,272.6L348.9,272.6c-2.6-10.3-13.7-20.6-24-23.1l0,0c-16.3-3.4-33.4-3.4-50.6,0l0,0
			c-10.3,2.6-21.4,12.9-24,23.1l0,0c-3.4,13.7-3.4,28.3,0,42l0,0c2.6,9.4,12.9,19.7,22.3,23.1v11.1c0,4.3,5.1,6,7.7,3.4l11.1-12
			c2.6,0,5.1,0,7.7,0c8.6,0,17.1-0.9,24.9-2.6l0,0c10.3-2.6,21.4-12.9,24-23.1l0,0C352.3,300.9,352.3,286.3,348.9,272.6L348.9,272.6
			z M340.3,312.9c-1.7,6.9-10.3,14.6-17.1,16.3c-8.6,1.7-18,2.6-26.6,2.6c0,0,0,0-0.9,0c-0.9,1.7-8.6,8.6-8.6,8.6l-8.6,9.4
			c-0.9,0.9-1.7,0-1.7-0.9V330c0,0,0-0.9-0.9-0.9l0,0c-6.9-1.7-15.4-9.4-17.1-16.3c-2.6-12.9-2.6-25.7,0-38.6
			c1.7-6.9,10.3-14.6,17.1-16.3c15.4-2.6,30.9-2.6,46.3,0c6.9,1.7,15.4,9.4,17.1,16.3C342.9,287.1,342.9,300,340.3,312.9
			L340.3,312.9z"/>
		<path fill="#FFFFFF" d="M314.6,321.4c-0.9,0-1.7-0.9-2.6-0.9c-9.4-4.3-18-9.4-24.9-17.1c-4.3-4.3-6.9-9.4-9.4-14.6
			c-0.9-2.6-2.6-5.1-3.4-7.7c-0.9-2.6,0.9-5.1,1.7-6.9c1.7-1.7,3.4-2.6,5.1-4.3c1.7-0.9,3.4,0,4.3,0.9c2.6,2.6,4.3,6,6.9,9.4
			c0.9,1.7,0.9,4.3-0.9,6c-0.9,0-0.9,0.9-1.7,0.9l-0.9,0.9c-0.9,0.9-0.9,1.7,0,2.6c2.6,6.9,6.9,12,13.7,14.6
			c0.9,0.9,2.6,0.9,3.4,0.9c1.7,0,2.6-2.6,4.3-3.4c1.7-0.9,3.4-0.9,5.1,0c1.7,0.9,3.4,1.7,4.3,3.4c1.7,0.9,2.6,1.7,4.3,3.4
			c1.7,0.9,1.7,2.6,0.9,4.3c-1.7,2.6-3.4,5.1-6,6.9C316.3,320.6,315.4,320.6,314.6,321.4C313.7,320.6,315.4,320.6,314.6,321.4
			L314.6,321.4z"/>
		<path fill="#FFFFFF" d="M300,267.4c12.9,0,23.1,8.6,24.9,20.6c0,1.7,0.9,4.3,0.9,6c0,0.9-0.9,1.7-1.7,1.7c-0.9,0-1.7-0.9-1.7-1.7
			c0-1.7,0-3.4-0.9-5.1c-1.7-9.4-8.6-17.1-18-18.9c-1.7,0-2.6,0-4.3-0.9c-0.9,0-1.7,0-2.6-0.9C297.4,267.4,298.3,267.4,300,267.4
			C299.1,267.4,300,267.4,300,267.4C312.9,267.4,300,267.4,300,267.4L300,267.4z"/>
		<path fill="#FFFFFF" d="M318.9,291.4v0.9c0,0.9-2.6,1.7-2.6,0v-0.9c0-2.6-0.9-5.1-1.7-7.7c-1.7-2.6-3.4-4.3-6-5.1
			c-1.7-0.9-3.4-0.9-5.1-1.7c-0.9,0-1.7,0-2.6,0c-0.9,0-1.7-0.9-1.7-1.7c0-0.9,0.9-1.7,1.7-1.7c2.6,0,6,0.9,8.6,1.7
			c5.1,2.6,7.7,6.9,8.6,12.9v0.9C318.9,289.7,318.9,290.6,318.9,291.4C318.9,291.4,318.9,290.6,318.9,291.4L318.9,291.4z"/>
		<path fill="#FFFFFF" d="M311.1,291.4c-0.9,0-1.7-0.9-1.7-1.7c0-0.9,0-1.7,0-1.7c0-0.9-0.9-2.6-1.7-3.4c-0.9,0-0.9-0.9-1.7-0.9
			s-1.7,0-2.6,0c-0.9,0-1.7-0.9-0.9-1.7c0-0.9,0.9-0.9,1.7-0.9c5.1,0,8.6,2.6,8.6,8.6v0.9C312,290.6,312,291.4,311.1,291.4
			S312,291.4,311.1,291.4L311.1,291.4z"/>
		<path fill="#D1D1D1" d="M348.9,272.6L348.9,272.6c-1.7-6-5.1-12-11.1-16.3l-6.9,6c4.3,3.4,7.7,7.7,8.6,12
			c2.6,12.9,2.6,25.7,0,38.6c-1.7,6.9-10.3,14.6-17.1,16.3c-8.6,1.7-18,2.6-26.6,2.6c0,0,0,0-0.9,0c-0.9,1.7-8.6,8.6-8.6,8.6
			l-8.6,9.4c-0.9,0.9-1.7,0-1.7-0.9V330c0,0,0-0.9-0.9-0.9l0,0c-3.4-0.9-8.6-4.3-12-7.7l-6.9,6c4.3,4.3,10.3,8.6,15.4,10.3v11.1
			c0,4.3,5.1,6,7.7,3.4l11.1-12c2.6,0,5.1,0,7.7,0c8.6,0,17.1-0.9,24.9-2.6l0,0c10.3-2.6,21.4-12.9,24-23.1l0,0
			C352.3,300.9,352.3,286.3,348.9,272.6L348.9,272.6z"/>
		<path fill="#FFFFFF" d="M314.6,321.4C315.4,320.6,313.7,320.6,314.6,321.4L314.6,321.4z"/>
		<path fill="#D1D1D1" d="M322.3,309.4c-1.7-0.9-2.6-2.6-4.3-3.4s-3.4-1.7-4.3-3.4c-1.7-0.9-3.4-0.9-5.1,0c-1.7,0.9-2.6,3.4-4.3,3.4
			c-0.9,0-2.6,0-3.4-0.9c-4.3-1.7-7.7-4.3-9.4-7.7l-5.1,4.3c0,0,0,0,0.9,0.9c6.9,7.7,15.4,12.9,24.9,17.1c0.9,0,1.7,0.9,2.6,0.9
			c-0.9,0,0.9,0,0,0c0.9,0,1.7,0,2.6-0.9c2.6-1.7,5.1-4.3,6-6.9C324,312,324,310.3,322.3,309.4L322.3,309.4z"/>
		<path fill="#FFFFFF" d="M300,267.4L300,267.4C300.9,267.4,312,267.4,300,267.4L300,267.4z"/>
		<path fill="#D1D1D1" d="M318,274.3l-2.6,1.7c3.4,3.4,6,7.7,6.9,12.9c0,1.7,0,3.4,0.9,5.1c0,0.9,0.9,1.7,1.7,1.7
			c0.9,0,1.7-0.9,1.7-1.7c0-1.7,0-4.3-0.9-6C324,282.9,321.4,277.7,318,274.3L318,274.3z"/>
		<path fill="#D1D1D1" d="M318.9,288.9c-0.9-4.3-2.6-7.7-5.1-10.3l-2.6,1.7c0.9,0.9,1.7,2.6,2.6,3.4c1.7,2.6,1.7,5.1,1.7,7.7v0.9
			c0.9,0.9,2.6,0.9,2.6,0v-0.9c0,0,0-0.9,0,0C318.9,290.6,318.9,289.7,318.9,288.9L318.9,288.9L318.9,288.9z"/>
		<path fill="#FFFFFF" d="M318.9,291.4C318.9,290.6,318.9,291.4,318.9,291.4L318.9,291.4z"/>
		<path fill="#FFFFFF" d="M311.1,291.4L311.1,291.4L311.1,291.4L311.1,291.4L311.1,291.4z"/>
		<path fill="#FFFFFF" d="M311.1,291.4L311.1,291.4C311.1,291.4,310.3,291.4,311.1,291.4L311.1,291.4z"/>
		<path fill="#FFFFFF" d="M311.1,291.4L311.1,291.4L311.1,291.4L311.1,291.4z"/>
		<path fill="#D1D1D1" d="M309.4,282l-2.6,1.7l0,0c0.9,0.9,1.7,1.7,1.7,3.4c0,0.9,0,1.7,0,1.7c0,0.9,0.9,1.7,1.7,1.7l0,0
			c0.9,0,0.9,0,0.9-0.9v-0.9C312,286.3,311.1,283.7,309.4,282L309.4,282z"/>
	</g>
</g>
</svg>
