<?xml version="1.0" encoding="utf-8"?>
<!-- Generator: Adobe Illustrator 19.0.1, SVG Export Plug-In . SVG Version: 6.00 Build 0)  -->
<svg version="1.1" id="Слой_1" xmlns="http://www.w3.org/2000/svg" xmlns:xlink="http://www.w3.org/1999/xlink" x="0px" y="0px"
	 viewBox="0 0 30 30" style="enable-background:new 0 0 30 30;" xml:space="preserve">
<style type="text/css">
	.st0{fill:#E4C646;}
	.st1{fill:none;stroke:#E4C646;stroke-width:2;stroke-miterlimit:10;}
	.st2{fill:#FFFFFF;}
</style>
<g>
	<g>
		<path class="st2" d="M2.6,27L4.3,21c-1.1-1.9-1.7-4-1.7-6.2c0-6.7,5.5-12.2,12.2-12.2S27,8.1,27,14.8C27,21.5,21.5,27,14.8,27
			c-2.1,0-4.1-0.5-6-1.6L2.6,27z M9.2,23.2l0.4,0.2c1.6,1,3.4,1.5,5.3,1.5c5.6,0,10.1-4.5,10.1-10.1c0-5.6-4.5-10.1-10.1-10.1
			S4.7,9.2,4.7,14.8c0,1.9,0.6,3.8,1.6,5.5l0.3,0.4l-1,3.5L9.2,23.2z M9.2,23.2"/>
		<path class="st2" d="M11.4,9.1l-0.8,0c-0.2,0-0.5,0.1-0.7,0.2c-0.4,0.3-1,1-1.2,1.8c-0.3,1.3,0.2,2.8,1.3,4.3c1.1,1.5,3.2,4,6.9,5
			c1.2,0.3,2.1,0.1,2.9-0.4c0.6-0.4,1-1,1.1-1.6l0.1-0.6c0-0.2-0.1-0.4-0.2-0.5l-2.7-1.2c-0.2-0.1-0.4,0-0.5,0.1l-1,1.4
			c-0.1,0.1-0.2,0.1-0.3,0.1c-0.7-0.3-3.1-1.3-4.4-3.8c-0.1-0.1,0-0.2,0-0.3l1-1.2c0.1-0.1,0.1-0.3,0.1-0.4l-1.2-2.7
			C11.7,9.2,11.5,9.1,11.4,9.1L11.4,9.1z M11.4,9.1"/>
	</g>
	<g>
		<path class="st2" d="M5.7,19.3c-0.7-1.4-1.1-2.9-1.1-4.5c0-5.6,4.5-10.1,10.1-10.1c2.1,0,4,0.6,5.6,1.7L22,5
			c-2-1.5-4.5-2.4-7.2-2.4C8.1,2.6,2.6,8.1,2.6,14.8c0,2.1,0.5,4.1,1.5,5.9L5.7,19.3z"/>
		<path class="st2" d="M10,15.5l1.7-1.5c0,0,0,0,0,0c-0.1-0.1,0-0.2,0-0.3l1-1.2c0.1-0.1,0.1-0.3,0.1-0.4l-1.2-2.7
			c-0.1-0.1-0.2-0.2-0.4-0.2l-0.8,0c-0.2,0-0.5,0.1-0.7,0.2c-0.4,0.3-1,1-1.2,1.8C8.4,12.4,8.9,13.9,10,15.5
			C10,15.5,10,15.5,10,15.5z"/>
	</g>
</g>
</svg>
