<?xml version="1.0" encoding="utf-8"?>
<!-- Generator: Adobe Illustrator 17.1.0, SVG Export Plug-In . SVG Version: 6.00 Build 0)  -->
<!DOCTYPE svg PUBLIC "-//W3C//DTD SVG 1.1//EN" "http://www.w3.org/Graphics/SVG/1.1/DTD/svg11.dtd">
<svg version="1.1" id="Layer_1" xmlns="http://www.w3.org/2000/svg" xmlns:xlink="http://www.w3.org/1999/xlink" x="0px" y="0px"
	 viewBox="200 200 200 200" enable-background="new 200 200 200 200" xml:space="preserve">
<g id="Слой_1" display="none">
</g>
<g id="Слой_2">
	<g>
		<path fill="#56AF40" d="M393.4,300c0,51.4-42,93.4-93.4,93.4s-93.4-42-93.4-93.4s42-93.4,93.4-93.4S393.4,248.6,393.4,300
			L393.4,300z"/>
		<g>
			<path fill="#50983B" d="M340.3,258c-22.3-5.1-31.7-18-54.9-9.4c-15.4,6-29.1,28.3-28.3,42c0,3.4-4.3,8.6-2.6,12.9
				c3.4,12.9,10.3,10.3,8.6,33.4c0,2.6,0.9,0.9,0,4.3l51.4,51.4c41.1-6.9,72.9-40.3,78-81.4L340.3,258z"/>
			<g>
				<path fill="#D1D1D1" d="M252,346.3l7.7-25.7c-5.1-7.7-6.9-17.1-6.9-26.6c0-29.1,23.1-52.3,52.3-52.3c29.1,0,52.3,23.1,52.3,52.3
					s-23.1,52.3-52.3,52.3c-8.6,0-18-2.6-25.7-6.9L252,346.3z M280.3,329.1l1.7,0.9c6.9,4.3,14.6,6,22.3,6c24,0,43.7-19.7,43.7-43.7
					c0-24-19.7-43.7-43.7-43.7s-43.7,19.7-43.7,43.7c0,8.6,2.6,16.3,6.9,23.1l0.9,1.7l-4.3,15.4L280.3,329.1z"/>
				<path fill="#D1D1D1" d="M289.7,269.1h-3.4c-0.9,0-1.7,0-2.6,0.9c-1.7,1.7-4.3,4.3-5.1,7.7c-0.9,5.1,0.9,12,5.1,18.9
					c5.1,6.9,13.7,17.1,30,21.4c5.1,1.7,9.4,0.9,12-1.7c2.6-1.7,4.3-4.3,5.1-6.9l0.9-2.6c0-0.9,0-1.7-0.9-1.7l-11.1-5.1
					c-0.9,0-1.7,0-1.7,0.9l-4.3,6c0,0.9-0.9,0.9-1.7,0.9c-3.4-0.9-13.7-5.1-18.9-16.3c0-0.9,0-0.9,0-1.7l4.3-5.1
					c0.9-0.9,0.9-0.9,0-1.7l-6-12.9C291.4,269.1,290.6,269.1,289.7,269.1L289.7,269.1z"/>
			</g>
			<g>
				<path fill="#FFFFFF" d="M265.7,312.9c-2.6-6-4.3-12.9-4.3-19.7c0-24,19.7-43.7,43.7-43.7c8.6,0,17.1,2.6,24,7.7l6.9-6
					c-8.6-6.9-19.7-10.3-30.9-10.3c-29.1,0-52.3,23.1-52.3,52.3c0,8.6,2.6,18,6.9,25.7L265.7,312.9z"/>
				<path fill="#FFFFFF" d="M284.6,296.6l7.7-6.9l0,0c0-0.9,0-0.9,0-1.7l4.3-5.1c0.9-0.9,0.9-0.9,0-1.7l-5.1-11.1
					c0-0.9-0.9-0.9-1.7-0.9h-3.4c-0.9,0-1.7,0-2.6,0.9c-1.7,1.7-4.3,4.3-5.1,7.7C277.7,282.9,279.4,289.7,284.6,296.6
					C283.7,296.6,284.6,296.6,284.6,296.6z"/>
			</g>
		</g>
	</g>
</g>
</svg>
